<?xml version="1.0" encoding="UTF-8" standalone="no"?>
<!DOCTYPE svg PUBLIC "-//W3C//DTD SVG 1.1//EN"
 "http://www.w3.org/Graphics/SVG/1.1/DTD/svg11.dtd">
<!-- Generated by graphviz version 2.40.1 (20161225.0304)
 -->
<!-- Title: controllers_diagram Pages: 1 -->
<svg width="477pt" height="375pt"
 viewBox="0.00 0.00 477.00 375.00" xmlns="http://www.w3.org/2000/svg" xmlns:xlink="http://www.w3.org/1999/xlink">
<g id="graph0" class="graph" transform="scale(1 1) rotate(0) translate(4 371)">
<title>controllers_diagram</title>
<polygon fill="transparent" stroke="transparent" points="-4,4 -4,-371 473,-371 473,4 -4,4"/>
<!-- _diagram_info -->
<g id="node1" class="node">
<title>_diagram_info</title>
<text text-anchor="start" x="263" y="-352.6" font-family="Times,serif" font-size="13.00" fill="#000000">Controllers diagram</text>
<text text-anchor="start" x="263" y="-338.6" font-family="Times,serif" font-size="13.00" fill="#000000">Date: Feb 13 2019 &#45; 15:01</text>
<text text-anchor="start" x="263" y="-324.6" font-family="Times,serif" font-size="13.00" fill="#000000">Migration version: 20190213174727</text>
<text text-anchor="start" x="263" y="-310.6" font-family="Times,serif" font-size="13.00" fill="#000000">Generated by RailRoady 1.5.3</text>
<text text-anchor="start" x="263" y="-296.6" font-family="Times,serif" font-size="13.00" fill="#000000">http://railroady.prestonlee.com</text>
</g>
<!-- ProjectsController -->
<g id="node2" class="node">
<title>ProjectsController</title>
<path fill="none" stroke="#000000" d="M29,-.5C29,-.5 121,-.5 121,-.5 127,-.5 133,-6.5 133,-12.5 133,-12.5 133,-201.5 133,-201.5 133,-207.5 127,-213.5 121,-213.5 121,-213.5 29,-213.5 29,-213.5 23,-213.5 17,-207.5 17,-201.5 17,-201.5 17,-12.5 17,-12.5 17,-6.5 23,-.5 29,-.5"/>
<text text-anchor="middle" x="75" y="-198.3" font-family="Times,serif" font-size="14.00" fill="#000000">ProjectsController</text>
<polyline fill="none" stroke="#000000" points="17,-190.5 133,-190.5 "/>
<text text-anchor="start" x="25" y="-175.3" font-family="Times,serif" font-size="14.00" fill="#000000">create</text>
<text text-anchor="start" x="25" y="-160.3" font-family="Times,serif" font-size="14.00" fill="#000000">destroy</text>
<text text-anchor="start" x="25" y="-145.3" font-family="Times,serif" font-size="14.00" fill="#000000">edit</text>
<text text-anchor="start" x="25" y="-130.3" font-family="Times,serif" font-size="14.00" fill="#000000">index</text>
<text text-anchor="start" x="25" y="-115.3" font-family="Times,serif" font-size="14.00" fill="#000000">new</text>
<text text-anchor="start" x="25" y="-100.3" font-family="Times,serif" font-size="14.00" fill="#000000">show</text>
<text text-anchor="start" x="25" y="-85.3" font-family="Times,serif" font-size="14.00" fill="#000000">update</text>
<polyline fill="none" stroke="#000000" points="17,-77.5 133,-77.5 "/>
<polyline fill="none" stroke="#000000" points="17,-53.5 133,-53.5 "/>
<text text-anchor="start" x="25" y="-38.3" font-family="Times,serif" font-size="14.00" fill="#000000">_layout</text>
<text text-anchor="start" x="25" y="-23.3" font-family="Times,serif" font-size="14.00" fill="#000000">project_params</text>
<text text-anchor="start" x="25" y="-8.3" font-family="Times,serif" font-size="14.00" fill="#000000">set_project</text>
</g>
<!-- ApplicationController -->
<g id="node3" class="node">
<title>ApplicationController</title>
<path fill="none" stroke="#000000" d="M12,-255.5C12,-255.5 124,-255.5 124,-255.5 130,-255.5 136,-261.5 136,-267.5 136,-267.5 136,-337.5 136,-337.5 136,-343.5 130,-349.5 124,-349.5 124,-349.5 12,-349.5 12,-349.5 6,-349.5 0,-343.5 0,-337.5 0,-337.5 0,-267.5 0,-267.5 0,-261.5 6,-255.5 12,-255.5"/>
<text text-anchor="middle" x="68" y="-334.3" font-family="Times,serif" font-size="14.00" fill="#000000">ApplicationController</text>
<polyline fill="none" stroke="#000000" points="0,-326.5 136,-326.5 "/>
<polyline fill="none" stroke="#000000" points="0,-302.5 136,-302.5 "/>
<polyline fill="none" stroke="#000000" points="0,-278.5 136,-278.5 "/>
<text text-anchor="start" x="8" y="-263.3" font-family="Times,serif" font-size="14.00" fill="#000000">_layout</text>
</g>
<!-- PeopleController -->
<g id="node4" class="node">
<title>PeopleController</title>
<path fill="none" stroke="#000000" d="M182,-34.5C182,-34.5 267,-34.5 267,-34.5 273,-34.5 279,-40.5 279,-46.5 279,-46.5 279,-235.5 279,-235.5 279,-241.5 273,-247.5 267,-247.5 267,-247.5 182,-247.5 182,-247.5 176,-247.5 170,-241.5 170,-235.5 170,-235.5 170,-46.5 170,-46.5 170,-40.5 176,-34.5 182,-34.5"/>
<text text-anchor="middle" x="224.5" y="-232.3" font-family="Times,serif" font-size="14.00" fill="#000000">PeopleController</text>
<polyline fill="none" stroke="#000000" points="170,-224.5 279,-224.5 "/>
<text text-anchor="start" x="178" y="-209.3" font-family="Times,serif" font-size="14.00" fill="#000000">create</text>
<text text-anchor="start" x="178" y="-194.3" font-family="Times,serif" font-size="14.00" fill="#000000">destroy</text>
<text text-anchor="start" x="178" y="-179.3" font-family="Times,serif" font-size="14.00" fill="#000000">edit</text>
<text text-anchor="start" x="178" y="-164.3" font-family="Times,serif" font-size="14.00" fill="#000000">index</text>
<text text-anchor="start" x="178" y="-149.3" font-family="Times,serif" font-size="14.00" fill="#000000">new</text>
<text text-anchor="start" x="178" y="-134.3" font-family="Times,serif" font-size="14.00" fill="#000000">show</text>
<text text-anchor="start" x="178" y="-119.3" font-family="Times,serif" font-size="14.00" fill="#000000">update</text>
<polyline fill="none" stroke="#000000" points="170,-111.5 279,-111.5 "/>
<polyline fill="none" stroke="#000000" points="170,-87.5 279,-87.5 "/>
<text text-anchor="start" x="178" y="-72.3" font-family="Times,serif" font-size="14.00" fill="#000000">_layout</text>
<text text-anchor="start" x="178" y="-57.3" font-family="Times,serif" font-size="14.00" fill="#000000">person_params</text>
<text text-anchor="start" x="178" y="-42.3" font-family="Times,serif" font-size="14.00" fill="#000000">set_person</text>
</g>
</g>
</svg>
