<?xml version="1.0" encoding="UTF-8" standalone="no"?>
<!DOCTYPE svg PUBLIC "-//W3C//DTD SVG 1.1//EN"
 "http://www.w3.org/Graphics/SVG/1.1/DTD/svg11.dtd">
<!-- Generated by graphviz version 2.40.1 (20161225.0304)
 -->
<!-- Title: models_diagram Pages: 1 -->
<svg width="1063pt" height="521pt"
 viewBox="0.00 0.00 1063.00 521.00" xmlns="http://www.w3.org/2000/svg" xmlns:xlink="http://www.w3.org/1999/xlink">
<g id="graph0" class="graph" transform="scale(1 1) rotate(0) translate(4 517)">
<title>models_diagram</title>
<polygon fill="transparent" stroke="transparent" points="-4,4 -4,-517 1059,-517 1059,4 -4,4"/>
<!-- _diagram_info -->
<g id="node1" class="node">
<title>_diagram_info</title>
<text text-anchor="start" x="8" y="-461.6" font-family="Times,serif" font-size="13.00" fill="#000000">Models diagram</text>
<text text-anchor="start" x="8" y="-447.6" font-family="Times,serif" font-size="13.00" fill="#000000">Date: Feb 13 2019 &#45; 15:01</text>
<text text-anchor="start" x="8" y="-433.6" font-family="Times,serif" font-size="13.00" fill="#000000">Migration version: 20190213174727</text>
<text text-anchor="start" x="8" y="-419.6" font-family="Times,serif" font-size="13.00" fill="#000000">Generated by RailRoady 1.5.3</text>
<text text-anchor="start" x="8" y="-405.6" font-family="Times,serif" font-size="13.00" fill="#000000">http://railroady.prestonlee.com</text>
</g>
<!-- ApplicationRecord -->
<g id="node2" class="node">
<title>ApplicationRecord</title>
<ellipse fill="none" stroke="#000000" cx="309" cy="-437" rx="77.1866" ry="18"/>
<text text-anchor="middle" x="309" y="-433.3" font-family="Times,serif" font-size="14.00" fill="#000000">ApplicationRecord</text>
</g>
<!-- Admin -->
<g id="node3" class="node">
<title>Admin</title>
<path fill="none" stroke="#000000" d="M416.5,-361.5C416.5,-361.5 705.5,-361.5 705.5,-361.5 711.5,-361.5 717.5,-367.5 717.5,-373.5 717.5,-373.5 717.5,-500.5 717.5,-500.5 717.5,-506.5 711.5,-512.5 705.5,-512.5 705.5,-512.5 416.5,-512.5 416.5,-512.5 410.5,-512.5 404.5,-506.5 404.5,-500.5 404.5,-500.5 404.5,-373.5 404.5,-373.5 404.5,-367.5 410.5,-361.5 416.5,-361.5"/>
<text text-anchor="middle" x="561" y="-497.3" font-family="Times,serif" font-size="14.00" fill="#000000">Admin</text>
<polyline fill="none" stroke="#000000" points="404.5,-489.5 717.5,-489.5 "/>
<text text-anchor="start" x="412.5" y="-474.3" font-family="Times,serif" font-size="14.00" fill="#000000">id :bigint</text>
<text text-anchor="start" x="412.5" y="-459.3" font-family="Times,serif" font-size="14.00" fill="#000000">email :character varying</text>
<text text-anchor="start" x="412.5" y="-444.3" font-family="Times,serif" font-size="14.00" fill="#000000">encrypted_password :character varying</text>
<text text-anchor="start" x="412.5" y="-429.3" font-family="Times,serif" font-size="14.00" fill="#000000">reset_password_token :character varying</text>
<text text-anchor="start" x="412.5" y="-414.3" font-family="Times,serif" font-size="14.00" fill="#000000">reset_password_sent_at :timestamp without time zone</text>
<text text-anchor="start" x="412.5" y="-399.3" font-family="Times,serif" font-size="14.00" fill="#000000">remember_created_at :timestamp without time zone</text>
<text text-anchor="start" x="412.5" y="-384.3" font-family="Times,serif" font-size="14.00" fill="#000000">created_at :timestamp without time zone</text>
<text text-anchor="start" x="412.5" y="-369.3" font-family="Times,serif" font-size="14.00" fill="#000000">updated_at :timestamp without time zone</text>
</g>
<!-- Person -->
<g id="node4" class="node">
<title>Person</title>
<path fill="none" stroke="#000000" d="M748,-376.5C748,-376.5 968,-376.5 968,-376.5 974,-376.5 980,-382.5 980,-388.5 980,-388.5 980,-485.5 980,-485.5 980,-491.5 974,-497.5 968,-497.5 968,-497.5 748,-497.5 748,-497.5 742,-497.5 736,-491.5 736,-485.5 736,-485.5 736,-388.5 736,-388.5 736,-382.5 742,-376.5 748,-376.5"/>
<text text-anchor="middle" x="858" y="-482.3" font-family="Times,serif" font-size="14.00" fill="#000000">Person</text>
<polyline fill="none" stroke="#000000" points="736,-474.5 980,-474.5 "/>
<text text-anchor="start" x="744" y="-459.3" font-family="Times,serif" font-size="14.00" fill="#000000">id :bigint</text>
<text text-anchor="start" x="744" y="-444.3" font-family="Times,serif" font-size="14.00" fill="#000000">name :character varying</text>
<text text-anchor="start" x="744" y="-429.3" font-family="Times,serif" font-size="14.00" fill="#000000">email :character varying</text>
<text text-anchor="start" x="744" y="-414.3" font-family="Times,serif" font-size="14.00" fill="#000000">created_at :timestamp without time zone</text>
<text text-anchor="start" x="744" y="-399.3" font-family="Times,serif" font-size="14.00" fill="#000000">updated_at :timestamp without time zone</text>
<text text-anchor="start" x="744" y="-384.3" font-family="Times,serif" font-size="14.00" fill="#000000">ocupation :character varying</text>
</g>
<!-- Work -->
<g id="node5" class="node">
<title>Work</title>
<path fill="none" stroke="#000000" d="M748,-.5C748,-.5 968,-.5 968,-.5 974,-.5 980,-6.5 980,-12.5 980,-12.5 980,-154.5 980,-154.5 980,-160.5 974,-166.5 968,-166.5 968,-166.5 748,-166.5 748,-166.5 742,-166.5 736,-160.5 736,-154.5 736,-154.5 736,-12.5 736,-12.5 736,-6.5 742,-.5 748,-.5"/>
<text text-anchor="middle" x="858" y="-151.3" font-family="Times,serif" font-size="14.00" fill="#000000">Work</text>
<polyline fill="none" stroke="#000000" points="736,-143.5 980,-143.5 "/>
<text text-anchor="start" x="744" y="-128.3" font-family="Times,serif" font-size="14.00" fill="#000000">id :bigint</text>
<text text-anchor="start" x="744" y="-113.3" font-family="Times,serif" font-size="14.00" fill="#000000">person_id :bigint</text>
<text text-anchor="start" x="744" y="-98.3" font-family="Times,serif" font-size="14.00" fill="#000000">project_id :bigint</text>
<text text-anchor="start" x="744" y="-83.3" font-family="Times,serif" font-size="14.00" fill="#000000">fee :integer</text>
<text text-anchor="start" x="744" y="-68.3" font-family="Times,serif" font-size="14.00" fill="#000000">finished :boolean</text>
<text text-anchor="start" x="744" y="-53.3" font-family="Times,serif" font-size="14.00" fill="#000000">start_date :character varying</text>
<text text-anchor="start" x="744" y="-38.3" font-family="Times,serif" font-size="14.00" fill="#000000">finish_date :character varying</text>
<text text-anchor="start" x="744" y="-23.3" font-family="Times,serif" font-size="14.00" fill="#000000">created_at :timestamp without time zone</text>
<text text-anchor="start" x="744" y="-8.3" font-family="Times,serif" font-size="14.00" fill="#000000">updated_at :timestamp without time zone</text>
</g>
<!-- Person&#45;&gt;Work -->
<g id="edge1" class="edge">
<title>Person&#45;&gt;Work</title>
<path fill="none" stroke="#86c299" d="M817.8795,-369.1512C811.3095,-355.0051 805.509,-339.8643 802,-325 789.5423,-272.2283 790.214,-255.9258 802,-203 803.975,-194.1314 806.6818,-185.1428 809.8465,-176.2843"/>
<ellipse fill="none" stroke="#86c299" cx="819.6488" cy="-372.844" rx="4" ry="4"/>
<polygon fill="#86c299" stroke="#86c299" points="809.919,-176.0917 817.6578,-168.3224 811.6831,-171.4132 813.4471,-166.7348 813.4471,-166.7348 813.4471,-166.7348 811.6831,-171.4132 809.2365,-165.1471 809.919,-176.0917 809.919,-176.0917"/>
</g>
<!-- Project -->
<g id="node6" class="node">
<title>Project</title>
<path fill="none" stroke="#000000" d="M823,-203.5C823,-203.5 1043,-203.5 1043,-203.5 1049,-203.5 1055,-209.5 1055,-215.5 1055,-215.5 1055,-312.5 1055,-312.5 1055,-318.5 1049,-324.5 1043,-324.5 1043,-324.5 823,-324.5 823,-324.5 817,-324.5 811,-318.5 811,-312.5 811,-312.5 811,-215.5 811,-215.5 811,-209.5 817,-203.5 823,-203.5"/>
<text text-anchor="middle" x="933" y="-309.3" font-family="Times,serif" font-size="14.00" fill="#000000">Project</text>
<polyline fill="none" stroke="#000000" points="811,-301.5 1055,-301.5 "/>
<text text-anchor="start" x="819" y="-286.3" font-family="Times,serif" font-size="14.00" fill="#000000">id :bigint</text>
<text text-anchor="start" x="819" y="-271.3" font-family="Times,serif" font-size="14.00" fill="#000000">name :character varying</text>
<text text-anchor="start" x="819" y="-256.3" font-family="Times,serif" font-size="14.00" fill="#000000">description :character varying</text>
<text text-anchor="start" x="819" y="-241.3" font-family="Times,serif" font-size="14.00" fill="#000000">budget :integer</text>
<text text-anchor="start" x="819" y="-226.3" font-family="Times,serif" font-size="14.00" fill="#000000">created_at :timestamp without time zone</text>
<text text-anchor="start" x="819" y="-211.3" font-family="Times,serif" font-size="14.00" fill="#000000">updated_at :timestamp without time zone</text>
</g>
<!-- Person&#45;&gt;Project -->
<g id="edge2" class="edge">
<title>Person&#45;&gt;Project</title>
<path fill="none" stroke="#88bf88" d="M888.3757,-366.9333C893.0608,-356.1264 897.8999,-344.9641 902.5859,-334.1552"/>
<polygon fill="#88bf88" stroke="#88bf88" points="888.209,-367.3181 880.1026,-374.7031 886.2202,-371.9055 884.2314,-376.493 884.2314,-376.493 884.2314,-376.493 886.2202,-371.9055 888.3601,-378.2829 888.209,-367.3181 888.209,-367.3181"/>
<polygon fill="#88bf88" stroke="#88bf88" points="902.6791,-333.9402 910.7854,-326.5552 904.6679,-329.3527 906.6567,-324.7653 906.6567,-324.7653 906.6567,-324.7653 904.6679,-329.3527 902.528,-322.9753 902.6791,-333.9402 902.6791,-333.9402"/>
</g>
<!-- Project&#45;&gt;Work -->
<g id="edge3" class="edge">
<title>Project&#45;&gt;Work</title>
<path fill="none" stroke="#fb098b" d="M904.6822,-195.8484C902.0264,-189.4569 899.3052,-182.9079 896.5764,-176.3405"/>
<ellipse fill="none" stroke="#fb098b" cx="906.2826" cy="-199.7002" rx="4" ry="4"/>
<polygon fill="#fb098b" stroke="#fb098b" points="896.4168,-175.9563 896.7352,-164.995 894.4982,-171.339 892.5797,-166.7217 892.5797,-166.7217 892.5797,-166.7217 894.4982,-171.339 888.4241,-168.4484 896.4168,-175.9563 896.4168,-175.9563"/>
</g>
</g>
</svg>
