<?xml version="1.0" encoding="UTF-8" standalone="no"?>
<!DOCTYPE svg PUBLIC "-//W3C//DTD SVG 1.1//EN"
 "http://www.w3.org/Graphics/SVG/1.1/DTD/svg11.dtd">
<!-- Generated by graphviz version 2.40.1 (20161225.0304)
 -->
<!-- Title: models_diagram Pages: 1 -->
<svg width="604pt" height="230pt"
 viewBox="0.00 0.00 603.75 230.00" xmlns="http://www.w3.org/2000/svg" xmlns:xlink="http://www.w3.org/1999/xlink">
<g id="graph0" class="graph" transform="scale(1 1) rotate(0) translate(4 226)">
<title>models_diagram</title>
<polygon fill="transparent" stroke="transparent" points="-4,4 -4,-226 599.7468,-226 599.7468,4 -4,4"/>
<!-- _diagram_info -->
<g id="node1" class="node">
<title>_diagram_info</title>
<text text-anchor="start" x="8" y="-207.6" font-family="Times,serif" font-size="13.00" fill="#000000">Models diagram</text>
<text text-anchor="start" x="8" y="-193.6" font-family="Times,serif" font-size="13.00" fill="#000000">Date: Feb 13 2019 &#45; 15:01</text>
<text text-anchor="start" x="8" y="-179.6" font-family="Times,serif" font-size="13.00" fill="#000000">Migration version: 20190213174727</text>
<text text-anchor="start" x="8" y="-165.6" font-family="Times,serif" font-size="13.00" fill="#000000">Generated by RailRoady 1.5.3</text>
<text text-anchor="start" x="8" y="-151.6" font-family="Times,serif" font-size="13.00" fill="#000000">http://railroady.prestonlee.com</text>
</g>
<!-- ApplicationRecord -->
<g id="node2" class="node">
<title>ApplicationRecord</title>
<ellipse fill="none" stroke="#000000" cx="309" cy="-183" rx="77.1866" ry="18"/>
<text text-anchor="middle" x="309" y="-179.3" font-family="Times,serif" font-size="14.00" fill="#000000">ApplicationRecord</text>
</g>
<!-- Admin -->
<g id="node3" class="node">
<title>Admin</title>
<ellipse fill="none" stroke="#000000" cx="440" cy="-183" rx="35.9954" ry="18"/>
<text text-anchor="middle" x="440" y="-179.3" font-family="Times,serif" font-size="14.00" fill="#000000">Admin</text>
</g>
<!-- Person -->
<g id="node4" class="node">
<title>Person</title>
<ellipse fill="none" stroke="#000000" cx="528" cy="-183" rx="34.394" ry="18"/>
<text text-anchor="middle" x="528" y="-179.3" font-family="Times,serif" font-size="14.00" fill="#000000">Person</text>
</g>
<!-- Work -->
<g id="node5" class="node">
<title>Work</title>
<ellipse fill="none" stroke="#000000" cx="528" cy="-18" rx="31.3957" ry="18"/>
<text text-anchor="middle" x="528" y="-14.3" font-family="Times,serif" font-size="14.00" fill="#000000">Work</text>
</g>
<!-- Person&#45;&gt;Work -->
<g id="edge1" class="edge">
<title>Person&#45;&gt;Work</title>
<path fill="none" stroke="#10b93b" d="M521.466,-156.8658C516.6731,-134.3705 511.5532,-101.044 515,-72 516.0341,-63.2862 517.9757,-53.944 520.0489,-45.5212"/>
<ellipse fill="none" stroke="#10b93b" cx="522.3954" cy="-161.0219" rx="4" ry="4"/>
<polygon fill="#10b93b" stroke="#10b93b" points="520.0592,-45.4816 526.9443,-36.9467 521.3251,-40.6445 522.5909,-35.8074 522.5909,-35.8074 522.5909,-35.8074 521.3251,-40.6445 518.2375,-34.6681 520.0592,-45.4816 520.0592,-45.4816"/>
</g>
<!-- Project -->
<g id="node6" class="node">
<title>Project</title>
<ellipse fill="none" stroke="#000000" cx="560" cy="-90" rx="35.9954" ry="18"/>
<text text-anchor="middle" x="560" y="-86.3" font-family="Times,serif" font-size="14.00" fill="#000000">Project</text>
</g>
<!-- Person&#45;&gt;Project -->
<g id="edge2" class="edge">
<title>Person&#45;&gt;Project</title>
<path fill="none" stroke="#7adcd3" d="M537.4534,-155.5259C541.5922,-143.4977 546.4371,-129.4171 550.5729,-117.3976"/>
<polygon fill="#7adcd3" stroke="#7adcd3" points="537.4236,-155.6128 529.9148,-163.6045 535.7968,-160.3407 534.1699,-165.0687 534.1699,-165.0687 534.1699,-165.0687 535.7968,-160.3407 538.4251,-166.5328 537.4236,-155.6128 537.4236,-155.6128"/>
<polygon fill="#7adcd3" stroke="#7adcd3" points="550.5953,-117.3322 558.1042,-109.3405 552.2222,-112.6042 553.849,-107.8763 553.849,-107.8763 553.849,-107.8763 552.2222,-112.6042 549.5939,-106.4121 550.5953,-117.3322 550.5953,-117.3322"/>
</g>
<!-- Project&#45;&gt;Work -->
<g id="edge3" class="edge">
<title>Project&#45;&gt;Work</title>
<path fill="none" stroke="#a823fe" d="M548.7897,-64.7769C545.9121,-58.3022 542.8067,-51.3152 539.8958,-44.7655"/>
<ellipse fill="none" stroke="#a823fe" cx="550.4653" cy="-68.547" rx="4" ry="4"/>
<polygon fill="#a823fe" stroke="#a823fe" points="539.8806,-44.7312 539.9313,-33.7654 537.8498,-40.1621 535.8191,-35.593 535.8191,-35.593 535.8191,-35.593 537.8498,-40.1621 531.707,-37.4207 539.8806,-44.7312 539.8806,-44.7312"/>
</g>
</g>
</svg>
